HIERARCHY
ROOT root
{
	OFFSET 0.000000 0.000000 0.000000
	CHANNELS 6 Xposition Yposition Zposition Zrotation Yrotation Xrotation
	JOINT lhip
	{
		OFFSET 0.058581 -0.082280 -0.017664
		CHANNELS 3 Zrotation Yrotation Xrotation
		JOINT lknee
		{
			OFFSET 0.043451 -0.386469 0.008037
			CHANNELS 3 Zrotation Yrotation Xrotation
			JOINT lankle
			{
				OFFSET -0.014790 -0.426874 -0.037428
				CHANNELS 3 Zrotation Yrotation Xrotation
				JOINT ltoe
				{
					OFFSET 0.041054 -0.060286 0.122042
					CHANNELS 3 Zrotation Yrotation Xrotation
					End Site
					{
						OFFSET 0.000000 0.000000 0.000000
					}
				}
			}
		}
	}
	JOINT rhip
	{
		OFFSET -0.060310 -0.090513 -0.013543
		CHANNELS 3 Zrotation Yrotation Xrotation
		JOINT rknee
		{
			OFFSET -0.043257 -0.383688 -0.004843
			CHANNELS 3 Zrotation Yrotation Xrotation
			JOINT rankle
			{
				OFFSET 0.019056 -0.420046 -0.034562
				CHANNELS 3 Zrotation Yrotation Xrotation
				JOINT rtoe
				{
					OFFSET -0.034840 -0.062106 0.130323
					CHANNELS 3 Zrotation Yrotation Xrotation
					End Site
					{
						OFFSET 0.000000 0.000000 0.000000
					}
				}
			}
		}
	}
	JOINT lowerback
	{
		OFFSET 0.004439 0.124404 -0.038385
		CHANNELS 3 Zrotation Yrotation Xrotation
		JOINT upperback
		{
			OFFSET 0.004488 0.137956 0.026820
			CHANNELS 3 Zrotation Yrotation Xrotation
			JOINT chest
			{
				OFFSET -0.002265 0.056032 0.002855
				CHANNELS 3 Zrotation Yrotation Xrotation
				JOINT lowerneck
				{
					OFFSET -0.013390 0.211636 -0.033468
					CHANNELS 3 Zrotation Yrotation Xrotation
					JOINT upperneck
					{
						OFFSET 0.010113 0.088937 0.050410
						CHANNELS 3 Zrotation Yrotation Xrotation
						End Site
						{
							OFFSET 0.000000 0.000000 0.000000
						}
					}
				}
				JOINT lclavicle
				{
					OFFSET 0.071702 0.114000 -0.018898
					CHANNELS 3 Zrotation Yrotation Xrotation
					JOINT lshoulder
					{
						OFFSET 0.122921 0.045205 -0.019046
						CHANNELS 3 Zrotation Yrotation Xrotation
						JOINT lelbow
						{
							OFFSET 0.255332 -0.015649 -0.022946
							CHANNELS 3 Zrotation Yrotation Xrotation
							JOINT lwrist
							{
								OFFSET 0.265709 0.012698 -0.007375
								CHANNELS 3 Zrotation Yrotation Xrotation
								End Site
								{
									OFFSET 0.000000 0.000000 0.000000
								}
							}
						}
					}
				}
				JOINT rclavicle
				{
					OFFSET -0.082954 0.112472 -0.023707
					CHANNELS 3 Zrotation Yrotation Xrotation
					JOINT rshoulder
					{
						OFFSET -0.113228 0.046853 -0.008472
						CHANNELS 3 Zrotation Yrotation Xrotation
						JOINT relbow
						{
							OFFSET -0.260127 -0.014369 -0.031269
							CHANNELS 3 Zrotation Yrotation Xrotation
							JOINT rwrist
							{
								OFFSET -0.269108 0.006794 -0.006027
								CHANNELS 3 Zrotation Yrotation Xrotation
								End Site
								{
									OFFSET 0.000000 0.000000 0.000000
								}
							}
						}
					}
				}
			}
		}
	}
}
MOTION
Frames: 10
Frame Time: 0.033333
0.649924 1.855138 0.954091 -57.945010 0.618387 83.749964 13.492114 6.476082 -1.133110 -7.265389 8.386565 20.874482 2.583047 14.835335 -20.376609 0.000000 -0.000000 0.000000 -7.508827 -8.805511 2.706099 4.724288 -8.864711 19.157216 -1.025840 -5.326240 -22.375155 0.000000 -0.000000 0.000000 2.852948 2.553259 5.386581 -0.553031 -0.341117 4.603151 -1.383616 -0.203065 2.407864 1.690841 8.142095 -3.229406 -1.323699 10.676201 4.085942 -33.752721 -0.734036 4.058580 -53.898040 -1.032256 9.882164 10.166157 -31.283317 2.006447 16.745369 -5.035702 -7.157310 29.689647 3.244197 6.521793 56.049180 3.484429 12.325063 -11.560754 28.262102 1.132297 -4.151480 7.428399 3.861884 
0.645756 1.848157 0.951421 -58.964248 0.865356 84.009681 13.646849 6.488651 -1.439668 -7.131881 9.251635 22.555276 2.797610 15.408433 -21.629662 0.000000 -0.000000 0.000000 -7.533347 -8.092787 2.288969 5.030881 -8.270061 19.989277 -0.911817 -5.988779 -23.182049 0.000000 -0.000000 0.000000 2.905371 2.476553 5.804985 -0.508618 -0.133932 4.339711 -1.414009 -0.257025 2.326000 1.866040 8.669917 -3.460146 -1.962638 11.355985 4.492481 -33.651079 0.090731 4.102035 -52.804309 -0.555260 9.907911 9.743516 -34.665267 2.989874 15.601970 -4.717368 -8.132745 29.549197 3.012736 6.537024 55.912786 3.343188 12.585595 -11.573552 28.591193 1.102599 -3.539526 7.145562 3.914237 
0.641285 1.839947 0.948683 -60.181291 1.314578 84.411144 13.918262 6.562945 -1.905220 -6.872134 10.211714 24.450151 2.823447 16.196332 -22.856685 0.000000 -0.000000 0.000000 -7.443319 -7.698572 1.563752 5.041223 -7.775241 21.254144 -0.996759 -5.866014 -24.133720 0.000000 -0.000000 0.000000 3.094205 2.307604 6.267720 -0.347242 0.207492 3.858427 -1.423086 -0.206771 2.421121 1.754206 9.043933 -3.657269 -2.438296 11.836189 4.633795 -33.152344 1.473624 4.086774 -51.998149 0.264094 9.764778 9.346472 -39.436493 2.815138 15.197341 -4.939444 -9.493121 29.445031 2.315811 6.388812 55.236714 3.224735 12.663723 -11.122092 29.558194 0.997470 -3.540303 7.238721 3.834886 
0.635783 1.828056 0.944592 -62.161164 2.007310 85.177210 14.383233 7.004787 -3.001661 -6.460763 11.747674 27.590585 2.777129 16.956090 -24.417496 0.000000 -0.000000 0.000000 -7.506385 -7.323748 0.275973 5.236138 -6.976290 22.999203 -0.789588 -5.203650 -25.108357 0.000000 -0.000000 0.000000 3.215157 2.186670 6.944775 0.122189 0.815675 3.125021 -1.141662 -0.058388 2.552956 1.746305 9.666455 -4.093946 -3.055608 12.544508 4.692219 -32.347826 3.591739 4.212635 -50.949992 2.203962 9.826961 7.933392 -46.980405 3.722173 16.247008 -5.143481 -10.887535 29.173479 0.917877 6.112831 53.506830 2.817858 12.467470 -10.058910 32.430590 0.839981 -3.933480 7.306377 3.659780 
0.632772 1.819454 0.941599 -63.522305 2.459744 85.701722 14.657138 7.506468 -3.807162 -6.165031 12.936019 29.766521 2.666513 17.338508 -25.382035 0.000000 -0.000000 0.000000 -7.715447 -7.051806 -0.578031 5.572000 -6.389506 23.913006 -0.572380 -4.926733 -25.633206 0.000000 -0.000000 0.000000 3.418705 2.138971 7.534849 0.481074 1.246589 2.740271 -0.956952 0.079655 2.573766 1.580256 9.965021 -4.173768 -3.634442 13.042573 4.207645 -31.621577 4.840431 4.466858 -49.766401 3.895543 10.328177 5.576208 -52.156086 6.499275 16.110642 -5.149600 -12.848067 28.684609 -0.053443 5.927331 52.062523 2.327870 12.413690 -9.042430 35.407992 0.818451 -3.624612 7.150097 2.373698 
0.629836 1.806520 0.937585 -65.241214 2.913444 86.740649 14.800449 8.016614 -6.005098 -5.906509 14.416767 33.938868 2.638799 18.179563 -25.785231 0.000000 -0.000000 0.000000 -8.349675 -6.724320 -2.357644 5.915226 -6.011968 25.450526 -0.031013 -5.033493 -26.446112 0.000000 -0.000000 0.000000 3.652868 2.002685 8.655507 0.861096 1.750926 1.899071 -0.730816 0.074501 2.759301 1.349301 10.527978 -4.921042 -4.300621 13.873135 3.292177 -30.711986 6.854574 4.646565 -48.165712 6.621478 11.184434 1.142548 -59.107250 10.818247 17.022438 -5.134226 -14.944665 28.037950 -1.327813 5.411388 49.861719 1.949053 12.671476 -6.907418 39.675893 0.689324 -4.734702 7.144023 0.420954 
0.629713 1.791347 0.932948 -66.704234 2.867020 88.034419 14.814577 8.479486 -9.962264 -5.926376 16.512101 40.697691 3.200775 18.076940 -24.852725 0.000000 -0.000000 0.000000 -10.026378 -6.635617 -5.033244 6.584428 -6.098732 27.928828 0.313894 -4.710641 -27.192118 0.000000 -0.000000 0.000000 3.893830 1.737766 10.577674 0.912384 1.968886 0.879553 -0.789098 -0.055762 2.669117 0.833778 11.094903 -5.530737 -5.053182 15.369871 2.142712 -30.020075 8.909747 5.174282 -46.879690 9.601329 11.610794 -3.313931 -65.625942 15.088478 16.663926 -5.388224 -17.630083 27.289524 -2.200561 5.360722 47.704204 2.032394 12.857780 -4.832176 44.239734 0.765743 -5.142341 7.190309 -1.930660 
0.632865 1.773876 0.926618 -67.985260 2.273793 89.652727 14.742348 9.025367 -15.152753 -7.065124 18.452228 48.095088 3.600905 17.104186 -23.451505 0.000000 -0.000000 0.000000 -12.841068 -7.395949 -8.900558 7.358746 -6.459907 31.804013 0.830814 -3.973745 -27.956194 0.000000 -0.000000 0.000000 4.071897 1.806300 12.995873 0.693286 2.115504 0.160824 -0.893769 -0.413109 2.685334 -0.522693 11.244402 -7.209860 -5.715453 16.866259 -0.316142 -29.688783 9.871499 5.839799 -47.358239 11.714251 11.842454 -5.644515 -69.292879 16.086484 20.155680 -4.107249 -21.494622 26.634435 -2.575516 5.240269 45.731354 2.597429 12.708631 -3.674504 48.198542 -0.172277 -7.161433 7.266630 -3.755489 
0.639101 1.755339 0.916187 -69.513837 1.457635 91.481424 14.470218 10.655222 -20.912041 -8.402549 19.240710 52.944249 3.939085 13.611048 -24.536266 0.000000 -0.000000 0.000000 -15.979965 -9.001985 -14.073465 7.253210 -7.302210 37.144890 2.221486 -2.727604 -28.418364 0.000000 -0.000000 0.000000 4.446745 1.668815 16.693390 -0.107913 2.408236 -0.611434 -1.068092 -0.612696 2.355269 -2.039710 11.467048 -9.789783 -7.207639 18.592028 -3.800432 -30.297038 10.229648 6.188243 -49.369388 12.886602 10.659590 -1.322671 -70.913222 12.738233 22.992280 -3.889224 -21.713534 25.621227 -2.097302 5.427215 45.040790 3.635980 11.936406 -3.704103 51.225823 -1.904708 -9.090564 7.667494 -5.613975 
0.649735 1.731002 0.896174 -71.768556 0.287223 93.892591 15.365944 12.887984 -28.911418 -6.342710 22.096010 56.368163 5.111986 12.884520 -25.227544 0.000000 -0.000000 0.000000 -19.508170 -11.469004 -21.243071 6.593240 -7.216757 44.529234 3.104001 -0.254269 -29.673963 0.000000 -0.000000 0.000000 4.646881 1.100751 22.834169 -1.809545 2.978281 -1.918466 -1.147190 -0.820271 1.909304 -4.064785 11.258460 -14.854296 -9.377932 21.283907 -9.165667 -33.217295 10.545265 5.062589 -53.076232 12.238708 7.619991 14.702183 -69.484055 -2.935563 23.795191 -3.342561 -22.187385 24.882244 -0.733130 5.409492 44.237123 5.720634 11.370824 -5.606082 53.514714 -5.071733 -10.425197 8.394615 -5.627207 
